<svg id="Layer_1" data-name="Layer 1" xmlns="http://www.w3.org/2000/svg" viewBox="0 0 600 180"><defs><style>.cls-1{fill:#fff;}</style></defs><title>Artboard 1</title><path class="cls-1" d="M582,12a5.83,5.83,0,0,1,6,5.77v108a6.21,6.21,0,0,1-6,6.22H492a5.83,5.83,0,0,0-6,5.78v24a6.21,6.21,0,0,1-6,6.22H120a6.21,6.21,0,0,1-6-6.22v-24a5.83,5.83,0,0,0-6-5.78H18a6.21,6.21,0,0,1-6-6.22v-108A5.83,5.83,0,0,1,18,12H582m0-12H18A17.83,17.83,0,0,0,0,17.77v108A18.21,18.21,0,0,0,18,144h84v17.78A18.21,18.21,0,0,0,120,180H480a18.21,18.21,0,0,0,18-18.22V144h84a18.21,18.21,0,0,0,18-18.22v-108A17.83,17.83,0,0,0,582,0Z"/><path class="cls-1" d="M111.26,32.75A29.6,29.6,0,0,1,122.34,41,26.45,26.45,0,0,1,128,53a8.43,8.43,0,0,1,.3,1.91,1.58,1.58,0,0,1-.35,1.21,2.39,2.39,0,0,1-1.26.4L109,57.59a1.74,1.74,0,0,1-1.31-.35,4.3,4.3,0,0,1-.6-1.56,15.78,15.78,0,0,0-3.33-7.61c-1.61-1.85-4.33-2.77-7.42-2.77a10.19,10.19,0,0,0-9.17,5.24C85.06,54,84,60.91,84,68.77Q84,81,87,86.11t9.32,5.14a12.74,12.74,0,0,0,8.28-2.72c2.52-1.81,4-4.84,5.7-9.07.2-.61.77-.91,1.71-.91a4.85,4.85,0,0,1,1.11.1l14.4,2.52A2.18,2.18,0,0,1,129,83.48q0,2.82-3.48,8.72a33.56,33.56,0,0,1-10.88,10.73c-4.94,3.23-11.53,4.84-19.06,4.84a34.36,34.36,0,0,1-18.75-5.09,33.81,33.81,0,0,1-12.45-14A45.44,45.44,0,0,1,60,68.37c0-7.53,1.46-15.31,4.38-21a31,31,0,0,1,12.5-13.05,37.75,37.75,0,0,1,18.9-4.59A38.92,38.92,0,0,1,111.26,32.75Z"/><path class="cls-1" d="M140.31,106.21a2.23,2.23,0,0,1-.5-1.56,5.2,5.2,0,0,1,.3-1.61L164.5,34.3a4.45,4.45,0,0,1,1.11-1.81,3,3,0,0,1,1.91-.5h19.86a3.4,3.4,0,0,1,2.17.76,4.82,4.82,0,0,1,1.46,2l24.19,68.64a5.56,5.56,0,0,1,.2,1.21,2.93,2.93,0,0,1-.4,1.56,1.33,1.33,0,0,1-1.21.66H194a2.13,2.13,0,0,1-2.22-1.71l-3.93-11.59a3.28,3.28,0,0,0-.55-1,1.37,1.37,0,0,0-1-.25H165a1.41,1.41,0,0,0-1.51,1.11l-4.13,11.89a2.35,2.35,0,0,1-2.42,1.51H141.62A1.69,1.69,0,0,1,140.31,106.21Zm41-31.09q1.11,0,1.11-1a6.14,6.14,0,0,0-.2-1l-6-17.23c-.14-.34-.34-.5-.6-.5s-.47.17-.6.5L168.84,73a2.24,2.24,0,0,0-.2,1q0,1.11,1.21,1.11Z"/><path class="cls-1" d="M270.6,48q-2.77-1.41-8-1.41t-7.76,1.51q-2.52,1.51-2.52,3.63,0,3.63,6.45,5.14l16.73,4.33q9.17,2.32,13.81,8.11a21.51,21.51,0,0,1,4.64,13.86,21.89,21.89,0,0,1-3.93,13,25.11,25.11,0,0,1-11.24,8.57,44.46,44.46,0,0,1-17.08,3,53.54,53.54,0,0,1-20.21-3.68q-9.12-3.68-12.65-9.62a3.85,3.85,0,0,1-.5-1.51,2.26,2.26,0,0,1,1.11-1.81L239.81,84a3.85,3.85,0,0,1,2-.71,2.2,2.2,0,0,1,1.81.91,21.71,21.71,0,0,0,7,6.25A20.59,20.59,0,0,0,260,92.25a21,21,0,0,0,8.92-1.56q3.27-1.56,3.28-4.28a4.3,4.3,0,0,0-1.61-3.33A10.73,10.73,0,0,0,265.81,81l-15.32-3.73a27.09,27.09,0,0,1-14.41-8.31,21,21,0,0,1-1.51-26.1,25.77,25.77,0,0,1,10.88-8.67A39.44,39.44,0,0,1,261.78,31a46.69,46.69,0,0,1,16.83,3q7.76,3,11.19,7.91a2.86,2.86,0,0,1,.71,1.71,1.73,1.73,0,0,1-.71,1.31l-11,8a1.73,1.73,0,0,1-1.11.4q-.71,0-1.91-1.21A18.59,18.59,0,0,0,270.6,48Z"/><path class="cls-1" d="M303.53,34.3a2.25,2.25,0,0,1,.66-1.66A2.52,2.52,0,0,1,306,32h60.27a2.52,2.52,0,0,1,1.86.66,2.26,2.26,0,0,1,.66,1.66v12q0,1.92-2.22,1.91H348.78q-1.21,0-1.21,1v55.33a2.4,2.4,0,0,1-.5,1.66,1.81,1.81,0,0,1-1.41.55H326.51q-1.81,0-1.81-2V49.62q0-1.41-1.11-1.41H305.85q-2.32,0-2.32-1.91Z"/><path class="cls-1" d="M456.53,104.65a2.16,2.16,0,0,1-.55,1.51,1.89,1.89,0,0,1-1.46.6H435a2.61,2.61,0,0,1-2.72-2.12L418,78.65a2.26,2.26,0,0,0-1-1.21,4.39,4.39,0,0,0-2.12-.4H410.2a1.06,1.06,0,0,0-.91.4,1.25,1.25,0,0,0-.3.71v25.7a2.77,2.77,0,0,1-.81,2.27,4,4,0,0,1-2.52.66H388.74a2.15,2.15,0,0,1-2.62-2.52V34.3Q386.12,32,388,32h33.66q14.61,0,22.68,5.59t8.06,15.77a21.62,21.62,0,0,1-3.68,12.4,19.78,19.78,0,0,1-9.52,7.66,1,1,0,0,0-.6,1,3.15,3.15,0,0,0,.2.91l17.5,28.22A2.53,2.53,0,0,1,456.53,104.65Zm-29.85-44.6a7,7,0,0,0,2.07-5.29,7.14,7.14,0,0,0-2.47-5.8,9.19,9.19,0,0,0-6.1-2.07h-8.87a2.75,2.75,0,0,0-1.81.45,2,2,0,0,0-.5,1.56v11a2.86,2.86,0,0,0,.35,1.61,1.56,1.56,0,0,0,1.36.5h10.08A8.23,8.23,0,0,0,426.68,60.05Z"/><path class="cls-1" d="M484.72,103.09a31.6,31.6,0,0,1-12.65-13.3,43.58,43.58,0,0,1-4.44-20.21,43.8,43.8,0,0,1,4.49-20.31,32.44,32.44,0,0,1,12.7-13.51A37.25,37.25,0,0,1,503.92,31a36.78,36.78,0,0,1,18.95,4.79,32.56,32.56,0,0,1,12.65,13.51A43.82,43.82,0,0,1,540,69.58a43.67,43.67,0,0,1-4.44,20.16A31.63,31.63,0,0,1,523,103.09a37.59,37.59,0,0,1-19,4.69A38.07,38.07,0,0,1,484.72,103.09ZM511,89.89q2.62-2.17,3.83-7a55.7,55.7,0,0,0,1.21-13q0-12.5-2.82-17.94t-9.27-5.44q-6.55,0-9.42,5.44t-2.87,17.94a55.75,55.75,0,0,0,1.21,13q1.21,4.84,3.88,7a11.1,11.1,0,0,0,7.21,2.17A10.73,10.73,0,0,0,511,89.89Z"/><path class="cls-1" d="M166,131.34a5.59,5.59,0,0,0-2.47-.44,4.79,4.79,0,0,0-2.39.47,1.33,1.33,0,0,0-.78,1.12q0,1.12,2,1.59l5.16,1.34a7.65,7.65,0,0,1,4.26,2.5,6.64,6.64,0,0,1,1.43,4.27,6.75,6.75,0,0,1-1.21,4,7.75,7.75,0,0,1-3.47,2.64,13.72,13.72,0,0,1-5.27.93,16.5,16.5,0,0,1-6.23-1.14,7.64,7.64,0,0,1-3.9-3,1.19,1.19,0,0,1-.16-.47.7.7,0,0,1,.34-.56l3.2-2.21a1.19,1.19,0,0,1,.62-.22.68.68,0,0,1,.56.28,6.69,6.69,0,0,0,2.15,1.93,6.35,6.35,0,0,0,2.89.56,6.48,6.48,0,0,0,2.75-.48,1.47,1.47,0,0,0,1-1.32,1.33,1.33,0,0,0-.5-1,3.31,3.31,0,0,0-1.46-.65l-4.73-1.15a8.36,8.36,0,0,1-4.45-2.56,6.49,6.49,0,0,1-.47-8.05,8,8,0,0,1,3.36-2.67,12.16,12.16,0,0,1,5-1,14.39,14.39,0,0,1,5.19.92,7.16,7.16,0,0,1,3.45,2.44.88.88,0,0,1,.22.53.54.54,0,0,1-.22.4l-3.39,2.46a.54.54,0,0,1-.34.12q-.22,0-.59-.37A5.74,5.74,0,0,0,166,131.34Z"/><path class="cls-1" d="M181.17,127.11a.69.69,0,0,1,.2-.51.78.78,0,0,1,.58-.2h18.59a.78.78,0,0,1,.58.2.69.69,0,0,1,.2.51v3.7q0,.59-.68.59h-5.5q-.37,0-.37.31v17.07a.74.74,0,0,1-.16.51.56.56,0,0,1-.44.17h-5.91q-.56,0-.56-.62v-17c0-.29-.11-.44-.34-.44h-5.47q-.72,0-.72-.59Z"/><path class="cls-1" d="M234.31,148.81a.67.67,0,0,1-.17.47.59.59,0,0,1-.45.19h-6a.81.81,0,0,1-.84-.65l-3.87-8a.7.7,0,0,0-.31-.37,1.35,1.35,0,0,0-.65-.12h-1.43a.33.33,0,0,0-.28.12.38.38,0,0,0-.09.22v7.93a.85.85,0,0,1-.25.7,1.22,1.22,0,0,1-.78.2h-5.22a.66.66,0,0,1-.81-.78V127.11q0-.71.59-.72H224.1a12.16,12.16,0,0,1,7,1.73,5.58,5.58,0,0,1,2.49,4.87,6.67,6.67,0,0,1-1.13,3.82,6.1,6.1,0,0,1-2.94,2.36.32.32,0,0,0-.19.31,1,1,0,0,0,.06.28l4.87,8.7A.78.78,0,0,1,234.31,148.81Zm-8.67-13.76a2.15,2.15,0,0,0,.64-1.63,2.2,2.2,0,0,0-.76-1.79,2.83,2.83,0,0,0-1.88-.64H220.9a.85.85,0,0,0-.56.14.62.62,0,0,0-.16.48V135a.88.88,0,0,0,.11.5.48.48,0,0,0,.42.16h3.11A2.54,2.54,0,0,0,225.64,135.05Z"/><path class="cls-1" d="M246,126.4H262.8q.56,0,.56.65l0,3.61q0,.84-.81.84H253.2q-.72,0-.72.59v2.64a.69.69,0,0,0,.16.48.52.52,0,0,0,.4.17h5.6q.65,0,.65.62v3.85q0,.53-.56.53H253a.52.52,0,0,0-.36.12.4.4,0,0,0-.14.31v3.11a.56.56,0,0,0,.08.34.37.37,0,0,0,.3.09H263q.68,0,.68.59v3.82a.67.67,0,0,1-.19.5.76.76,0,0,1-.56.19H246.26a.91.91,0,0,1-.65-.19.81.81,0,0,1-.19-.59V127.11Q245.42,126.4,246,126.4Z"/><path class="cls-1" d="M276.2,126.4H293q.56,0,.56.65l0,3.61q0,.84-.81.84h-9.33q-.72,0-.72.59v2.64a.69.69,0,0,0,.16.48.52.52,0,0,0,.4.17h5.6q.65,0,.65.62v3.85q0,.53-.56.53h-5.75a.52.52,0,0,0-.36.12.4.4,0,0,0-.14.31v3.11a.56.56,0,0,0,.08.34.37.37,0,0,0,.3.09h10.1q.68,0,.68.59v3.82a.67.67,0,0,1-.19.5.76.76,0,0,1-.56.19H276.45a.91.91,0,0,1-.65-.19.81.81,0,0,1-.19-.59V127.11Q275.61,126.4,276.2,126.4Z"/><path class="cls-1" d="M303.81,127.11a.69.69,0,0,1,.2-.51.78.78,0,0,1,.58-.2h18.59a.78.78,0,0,1,.58.2.69.69,0,0,1,.2.51v3.7q0,.59-.68.59h-5.5q-.37,0-.37.31v17.07a.74.74,0,0,1-.16.51.56.56,0,0,1-.44.17H310.9q-.56,0-.56-.62v-17c0-.29-.11-.44-.34-.44h-5.47q-.72,0-.72-.59Z"/><path class="cls-1" d="M351.47,126.58a.54.54,0,0,1,.44-.19h16.57q.56,0,.56.65l0,3.61q0,.84-.78.84h-9.14q-.72,0-.72.59V135q0,.62.56.62h5.69a.55.55,0,0,1,.62.62V140q0,.53-.56.53h-5.81a.52.52,0,0,0-.36.12.43.43,0,0,0-.14.34v7.52a.85.85,0,0,1-.25.7,1.22,1.22,0,0,1-.78.2h-5.19a.91.91,0,0,1-.65-.19.81.81,0,0,1-.19-.59V127.11A.81.81,0,0,1,351.47,126.58Z"/><path class="cls-1" d="M375.81,149.29a.69.69,0,0,1-.16-.48,1.59,1.59,0,0,1,.09-.5l7.52-21.2a1.37,1.37,0,0,1,.34-.56.92.92,0,0,1,.59-.16h6.12a1.05,1.05,0,0,1,.67.23,1.5,1.5,0,0,1,.45.61l7.46,21.17a1.72,1.72,0,0,1,.06.37.9.9,0,0,1-.12.48.41.41,0,0,1-.37.2h-6.09a.66.66,0,0,1-.68-.53l-1.21-3.57a1,1,0,0,0-.17-.3.42.42,0,0,0-.3-.08h-6.59a.43.43,0,0,0-.47.34L381.68,149a.73.73,0,0,1-.75.47h-4.73A.52.52,0,0,1,375.81,149.29Zm12.65-9.59q.34,0,.34-.31a1.91,1.91,0,0,0-.06-.31l-1.86-5.32c0-.1-.1-.16-.19-.16s-.15.05-.19.16l-1.9,5.29a.69.69,0,0,0-.06.31q0,.34.37.34Z"/><path class="cls-1" d="M413.43,126.4q.56,0,.56.65v21.51a.85.85,0,0,1-.25.7,1.22,1.22,0,0,1-.78.2h-5.19a.91.91,0,0,1-.65-.19.81.81,0,0,1-.19-.59V127.11a.81.81,0,0,1,.16-.53.54.54,0,0,1,.44-.19Z"/><path class="cls-1" d="M447.73,148.81a.67.67,0,0,1-.17.47.59.59,0,0,1-.45.19h-6a.81.81,0,0,1-.84-.65l-3.87-8a.7.7,0,0,0-.31-.37,1.35,1.35,0,0,0-.65-.12H434a.33.33,0,0,0-.28.12.38.38,0,0,0-.09.22v7.93a.85.85,0,0,1-.25.7,1.22,1.22,0,0,1-.78.2h-5.22a.66.66,0,0,1-.81-.78V127.11q0-.71.59-.72h10.38a12.16,12.16,0,0,1,7,1.73A5.58,5.58,0,0,1,447,133a6.67,6.67,0,0,1-1.13,3.82,6.1,6.1,0,0,1-2.94,2.36.32.32,0,0,0-.19.31,1,1,0,0,0,.06.28l4.87,8.7A.78.78,0,0,1,447.73,148.81Zm-8.67-13.76a2.15,2.15,0,0,0,.64-1.63,2.2,2.2,0,0,0-.76-1.79,2.83,2.83,0,0,0-1.88-.64h-2.74a.85.85,0,0,0-.56.14.62.62,0,0,0-.16.48V135a.88.88,0,0,0,.11.5.48.48,0,0,0,.42.16h3.11A2.54,2.54,0,0,0,439.06,135.05Z"/></svg>